:SAMPLES-PER-SECOND 24
:FULLY-SPECIFIED
:DEGREES
108
root  9.67029 41.0052 -13.7463 -173.881 30.2617 176.543
RightUpLeg  -8.04771 0.386755 -4.83806
RightLeg  19.7571 -2.32795 -1.13811
RightFoot  -6.55695 -0.322713 6.68716
RightToes  -2.09809e-008 3.77894e-005 6.81332e-007
Spine  -5.46435 1.05863 -0.696658
Spine1  3.66975 1.6016 -2.82117
HEad  -14.0932 21.7528 -9.02319
LeftShoulder1  5.86732 -11.502 -33.1036
LeftArm  -1.49357 34.1752 -37.9121
LeftForeArm  172.808 -61.6741 -161.929
LeftHand  -0.0684765 -2.53257 1.2104
RightShoulder  3.38145 6.01223 29.6164
RightArm  19.6834 -30.8427 30.9588
RightForeArm  163.085 67.3593 155.778
RightHand  -0.269906 9.96637 -2.4417
LeftUpLeg  -18.3906 6.24523 12.9133
LeftLeg  5.42696 0.434638 1.1588
LeftFoot  6.13892 2.97893 -19.5065
LeftToes  1.24773e-006 1.46318e-008 1.32523e-009
109
root  9.565 40.8057 -12.9899 -174.3 29.9959 176.273
RightUpLeg  -8.90802 -0.0344158 -4.92001
RightLeg  20.4787 -1.02812 -0.636199
RightFoot  -8.12982 -0.230979 6.29161
RightToes  -2.09809e-008 3.77894e-005 6.81332e-007
Spine  -3.61546 0.933388 -1.20552
Spine1  2.71036 1.31262 -1.77788
HEad  -14.9358 21.6555 -9.12893
LeftShoulder1  5.79408 -11.4849 -32.6626
LeftArm  -0.186043 31.7559 -37.7458
LeftForeArm  171.17 -63.0722 -160.721
LeftHand  -0.124785 -2.06545 2.12881
RightShoulder  3.34774 6.01431 29.2465
RightArm  19.3222 -28.9971 30.248
RightForeArm  160.115 69.1719 153.192
RightHand  -0.317397 9.41713 -2.88047
LeftUpLeg  -18.3386 4.46746 13.2974
LeftLeg  11.3055 2.85187 1.54463
LeftFoot  7.31069 2.99471 -18.3792
LeftToes  1.24773e-006 1.46318e-008 1.32523e-009
110
root  9.34186 40.1616 -12.2259 -174.898 29.877 176.509
RightUpLeg  -9.99145 -0.897207 -4.23744
RightLeg  22.6721 -0.747637 -0.556363
RightFoot  -12.2734 -0.0488562 4.38381
RightToes  -2.09809e-008 3.77894e-005 6.81332e-007
Spine  -0.521466 0.708547 -0.647332
Spine1  1.26292 0.944918 -0.977344
HEad  -16.9955 21.75 -9.71382
LeftShoulder1  6.01897 -11.8143 -33.2931
LeftArm  0.468812 28.6723 -35.9454
LeftForeArm  170.086 -63.3857 -160.359
LeftHand  -0.150374 -1.70918 2.62497
RightShoulder  3.37415 6.05869 29.3616
RightArm  18.5181 -26.0247 29.7455
RightForeArm  157.3 70.457 150.995
RightHand  -0.383567 8.99996 -3.4775
LeftUpLeg  -18.8947 1.33434 14.4874
LeftLeg  19.9444 5.5412 2.58946
LeftFoot  7.5665 2.76377 -16.7743
LeftToes  1.24773e-006 1.46318e-008 1.32523e-009
111
root  9.02777 39.3368 -11.4854 -175.439 30.4375 177.352
RightUpLeg  -11.8116 -0.0123156 -2.74693
RightLeg  26.3838 -2.46649 -1.56088
RightFoot  -16.5979 -0.0288307 1.81963
RightToes  -2.09809e-008 3.77894e-005 6.81332e-007
Spine  1.93995 0.562069 1.02168
Spine1  1.73354 0.847468 -0.776127
HEad  -20.3702 21.8668 -11.2349
LeftShoulder1  6.38168 -12.1839 -34.6657
LeftArm  0.355824 23.7729 -33.7089
LeftForeArm  168.71 -64.326 -159.425
LeftHand  -0.212155 -1.75336 3.61856
RightShoulder  3.38558 6.04553 29.534
RightArm  16.9505 -21.6132 30.234
RightForeArm  155.334 71.5961 148.86
RightHand  -0.470199 8.85356 -4.2099
LeftUpLeg  -18.9376 -0.59765 15.6301
LeftLeg  28.9064 7.18145 4.61283
LeftFoot  6.21472 2.2465 -14.7279
LeftToes  1.24773e-006 1.46318e-008 1.32523e-009
112
root  8.71126 38.6829 -10.8899 -175.404 31.6434 178.028
RightUpLeg  -14.534 2.66968 -1.60716
RightLeg  30.4084 -4.82201 -3.28824
RightFoot  -19.2691 -0.102447 0.37581
RightToes  -2.09809e-008 3.77894e-005 6.81332e-007
Spine  2.24164 0.562333 2.48496
Spine1  3.79897 1.07933 -1.47256
HEad  -23.3941 22.0202 -12.5776
LeftShoulder1  6.52791 -12.2909 -35.3053
LeftArm  -0.174454 19.0763 -33.0017
LeftForeArm  168.826 -65.9634 -157.927
LeftHand  -0.266061 -1.89379 4.42404
RightShoulder  3.32623 5.91967 29.3749
RightArm  14.6462 -18.2436 32.3511
RightForeArm  154.496 73.005 146.103
RightHand  -0.507071 8.92828 -4.48899
LeftUpLeg  -17.9608 -1.06586 15.9874
LeftLeg  34.668 8.87527 6.88539
LeftFoot  3.83708 2.10197 -15.9051
LeftToes  1.24773e-006 1.46318e-008 1.32523e-009
113
root  8.40897 38.4778 -10.5023 -175.221 32.4526 177.943
RightUpLeg  -16.6755 4.43249 -1.72966
RightLeg  32.3795 -5.80311 -4.19163
RightFoot  -19.4788 -0.107762 0.335725
RightToes  -2.09809e-008 3.77894e-005 6.81332e-007
Spine  1.52646 0.26112 2.26426
Spine1  4.76228 0.850216 -1.85791
HEad  -24.528 22.8006 -12.4752
LeftShoulder1  6.57466 -12.3539 -35.4329
LeftArm  -0.925725 18.0232 -33.3936
LeftForeArm  170.861 -66.1894 -157.928
LeftHand  -0.241057 -1.972 3.9854
RightShoulder  3.41574 6.02352 29.9406
RightArm  13.0973 -18.5349 34.066
RightForeArm  154.929 73.2745 145.622
RightHand  -0.503324 9.05184 -4.42548
LeftUpLeg  -15.6037 -1.24723 14.8754
LeftLeg  34.8857 9.57376 7.44385
LeftFoot  -0.610733 1.60443 -16.887
LeftToes  1.24773e-006 1.46318e-008 1.32523e-009
114
root  8.05936 38.8023 -10.2792 -175.281 32.1154 177.559
RightUpLeg  -16.5288 4.13942 -2.50174
RightLeg  30.2767 -5.7264 -3.83965
RightFoot  -17.2699 -0.0837683 0.63036
RightToes  -2.09809e-008 3.77894e-005 6.81332e-007
Spine  1.06812 -0.427257 -0.138717
Spine1  4.56153 -0.326841 0.393309
HEad  -24.3541 23.9951 -11.8538
LeftShoulder1  6.55043 -12.3454 -35.3056
LeftArm  -0.972787 19.8801 -35.0715
LeftForeArm  171.984 -64.9989 -159.17
LeftHand  -0.218623 -2.12052 3.57064
RightShoulder  3.41081 6.01187 29.933
RightArm  13.3921 -21.6469 35.2871
RightForeArm  156.541 72.0663 148.207
RightHand  -0.521513 9.04556 -4.57272
LeftUpLeg  -12.1416 -1.55056 12.8654
LeftLeg  29.8354 8.0475 5.31526
LeftFoot  -4.14556 0.9955 -15.324
LeftToes  1.24773e-006 1.46318e-008 1.32523e-009
115
root  7.62569 39.4149 -10.1883 -174.954 31.6168 177.346
RightUpLeg  -15.109 3.57708 -3.40486
RightLeg  25.1591 -5.53223 -3.05186
RightFoot  -13.5278 -0.0699502 1.13398
RightToes  -2.09809e-008 3.77894e-005 6.81332e-007
Spine  -0.090586 -1.12346 -2.46386
Spine1  4.54293 -1.47222 2.61813
HEad  -23.3557 25.1781 -11.1177
LeftShoulder1  6.36624 -12.1432 -34.6732
LeftArm  0.369926 22.0373 -37.1221
LeftForeArm  171.755 -64.0978 -159.937
LeftHand  -0.216934 -2.28652 3.48039
RightShoulder  3.3745 5.92716 29.8695
RightArm  14.7518 -25.1477 35.1138
RightForeArm  158.535 70.906 150.468
RightHand  -0.510749 9.18593 -4.44923
LeftUpLeg  -8.88057 -0.27274 10.846
LeftLeg  23.3952 5.89572 3.11965
LeftFoot  -5.69481 0.769761 -14.852
LeftToes  1.24773e-006 1.46318e-008 1.32523e-009
116
root  7.06325 39.9767 -10.142 -173.979 31.7579 177.207
RightUpLeg  -14.5909 3.68843 -4.58859
RightLeg  20.197 -5.20124 -2.33424
RightFoot  -9.34753 -0.101715 2.15555
RightToes  -2.09809e-008 3.77894e-005 6.81332e-007
Spine  -1.88458 -1.52876 -3.64201
Spine1  4.32325 -1.93019 3.09333
HEad  -22.008 26.0297 -10.3172
LeftShoulder1  6.21792 -11.9997 -34.1012
LeftArm  2.40695 23.4111 -38.2014
LeftForeArm  171.952 -63.8185 -160.191
LeftHand  -0.183461 -2.3999 2.93769
RightShoulder  3.37702 5.90873 29.9684
RightArm  15.9406 -28.2598 33.8722
RightForeArm  159.946 70.5326 151.246
RightHand  -0.45436 9.38559 -3.95563
LeftUpLeg  -7.18342 1.88281 8.93395
LeftLeg  20.2083 7.40871 3.33676
LeftFoot  -6.30177 0.627629 -13.4226
LeftToes  1.24773e-006 1.46318e-008 1.32523e-009
117
root  6.34168 40.274 -10.0033 -172.773 31.7349 177.335
RightUpLeg  -15.5235 3.3682 -5.65752
RightLeg  17.6004 -4.38527 -1.8525
RightFoot  -6.22181 -0.201533 3.5521
RightToes  -2.09809e-008 3.77894e-005 6.81332e-007
Spine  -2.94898 -1.96982 -4.34095
Spine1  3.5839 -2.37783 3.42794
HEad  -21.3739 26.5869 -9.77582
LeftShoulder1  6.2314 -12.0529 -34.0505
LeftArm  4.32822 23.3394 -38.015
LeftForeArm  171.794 -64.0649 -159.969
LeftHand  -0.153978 -2.48155 2.47807
RightShoulder  3.42303 6.02494 30.014
RightArm  16.6695 -30.0789 32.3247
RightForeArm  159.42 70.5767 151.105
RightHand  -0.426311 9.1556 -3.78626
LeftUpLeg  -7.25757 1.77809 7.42162
LeftLeg  21.4082 12.7129 5.78399
LeftFoot  -3.91606 0.736989 -11.0248
LeftToes  1.24773e-006 1.46318e-008 1.32523e-009
118
root  5.48926 40.2191 -9.72786 -171.847 31.1693 178.311
RightUpLeg  -17.0278 3.04265 -5.90144
RightLeg  17.5942 -4.16374 -1.75232
RightFoot  -5.0832 -0.288925 4.65095
RightToes  -2.09809e-008 3.77894e-005 6.81332e-007
Spine  -2.28822 -2.29606 -5.12949
Spine1  2.68184 -3.02279 5.17522
HEad  -21.8621 26.5219 -9.75098
LeftShoulder1  6.2512 -12.1244 -33.9943
LeftArm  6.11374 21.2295 -37.6912
LeftForeArm  170.464 -64.9918 -159.017
LeftHand  -0.140652 -2.54546 2.26725
RightShoulder  3.39191 6.05418 29.5685
RightArm  16.5057 -30.2818 31.2871
RightForeArm  158.73 70.6609 150.879
RightHand  -0.468817 8.69654 -4.23969
LeftUpLeg  -7.4924 0.875459 7.3231
LeftLeg  23.3599 15.2189 7.40154
LeftFoot  -1.33634 1.28277 -14.3249
LeftToes  1.24773e-006 1.46318e-008 1.32523e-009
119
root  4.55828 39.8927 -9.34778 -171.795 31.1423 179.734
RightUpLeg  -18.4515 3.41441 -5.60283
RightLeg  19.2523 -4.68224 -2.02605
RightFoot  -5.00372 -0.301035 4.83765
RightToes  -2.09809e-008 3.77894e-005 6.81332e-007
Spine  -0.0241731 -2.15574 -5.74256
Spine1  2.11416 -3.2676 6.67985
HEad  -23.8937 25.9637 -10.0035
LeftShoulder1  6.15315 -12.0516 -33.5547
LeftArm  7.41126 17.4279 -37.5515
LeftForeArm  168.969 -66.0838 -157.821
LeftHand  -0.125225 -2.4845 2.05192
RightShoulder  3.33976 5.9793 29.2934
RightArm  15.2316 -28.8479 31.0014
RightForeArm  158.36 71.0362 150.236
RightHand  -0.604495 8.41285 -5.44949
LeftUpLeg  -6.26737 2.76456 8.27466
LeftLeg  22.638 12.5399 6.00692
LeftFoot  -4.95117 1.13639 -19.6602
LeftToes  1.24773e-006 1.46318e-008 1.32523e-009
120
root  3.58722 39.5052 -8.9072 -172.13 31.7883 -179.493
RightUpLeg  -20.3584 4.00472 -5.8736
RightLeg  21.4167 -4.95024 -2.34909
RightFoot  -5.04842 -0.302847 4.88229
RightToes  -2.09809e-008 3.77894e-005 6.81332e-007
Spine  1.59409 -1.72769 -7.73187
Spine1  3.39128 -3.46222 8.80312
HEad  -28.093 25.2365 -10.9918
LeftShoulder1  6.31776 -12.1903 -34.2462
LeftArm  7.86769 12.1436 -36.1483
LeftForeArm  167.147 -67.676 -155.915
LeftHand  -0.160477 -2.43578 2.58279
RightShoulder  3.32052 5.8906 29.4252
RightArm  12.5808 -25.9549 31.816
RightForeArm  156.343 72.2727 147.793
RightHand  -0.78522 8.46734 -6.93565
LeftUpLeg  -5.1533 5.72404 8.33753
LeftLeg  20.651 9.86006 4.40323
LeftFoot  -11.0137 0.128472 -18.8598
LeftToes  1.24773e-006 1.46318e-008 1.32523e-009
121
root  2.63401 39.3118 -8.46197 -171.531 32.0107 -179.417
RightUpLeg  -22.9698 4.12352 -6.94346
RightLeg  22.2583 -4.87651 -2.40285
RightFoot  -4.06267 -0.376209 5.4821
RightToes  -2.09809e-008 3.77894e-005 6.81332e-007
Spine  1.13938 -1.81627 -10.1423
Spine1  5.98462 -4.16139 10.7305
HEad  -32.8367 24.6762 -12.1195
LeftShoulder1  6.6087 -12.4471 -35.4028
LeftArm  7.92326 7.1379 -34.1509
LeftForeArm  164.135 -70.4835 -151.874
LeftHand  -0.229003 -2.52417 3.57082
RightShoulder  3.42238 5.98591 30.1564
RightArm  8.76215 -23.6802 33.9908
RightForeArm  152.653 74.1475 143.279
RightHand  -0.836007 8.83595 -7.18727
LeftUpLeg  -6.73207 4.50681 6.60337
LeftLeg  20.1319 13.243 5.64702
LeftFoot  -12.8351 -0.127102 -15.0568
LeftToes  1.24773e-006 1.46318e-008 1.32523e-009
